<svg width="35" height="35" viewBox="0 0 35 35" fill="none" xmlns="http://www.w3.org/2000/svg">
<path fill-rule="evenodd" clip-rule="evenodd" d="M26.25 35H8.75C6.42936 35 4.20376 34.0781 2.56282 32.4372C0.921873 30.7962 0 28.5706 0 26.25V8.75C0 6.42936 0.921873 4.20376 2.56282 2.56282C4.20376 0.921873 6.42936 0 8.75 0L26.25 0C28.5706 0 30.7962 0.921873 32.4372 2.56282C34.0781 4.20376 35 6.42936 35 8.75V26.25C35 28.5706 34.0781 30.7962 32.4372 32.4372C30.7962 34.0781 28.5706 35 26.25 35Z" fill="#2D2D2D"/>
<path fill-rule="evenodd" clip-rule="evenodd" d="M16.4062 9.84375H26.25C27.5128 9.84533 28.7279 9.36147 29.644 8.49224C30.5601 7.62301 31.107 6.43493 31.1716 5.17376C31.2362 3.91259 30.8136 2.67482 29.9912 1.71651C29.1688 0.7582 28.0095 0.152661 26.7531 0.0251563C26.5858 0.0158594 26.4201 0 26.25 0H8.75C6.42936 0 4.20376 0.921873 2.56282 2.56282C0.921873 4.20376 0 6.42936 0 8.75L0 26.25C0 21.8988 1.72851 17.7258 4.80528 14.649C7.88205 11.5723 12.055 9.84375 16.4062 9.84375Z" fill="#464646"/>
<path fill-rule="evenodd" clip-rule="evenodd" d="M26.25 17.5C24.5194 17.5 22.8277 18.0132 21.3888 18.9746C19.9498 19.9361 18.8283 21.3027 18.1661 22.9015C17.5038 24.5004 17.3305 26.2597 17.6681 27.957C18.0058 29.6544 18.8391 31.2135 20.0628 32.4372C21.2865 33.6609 22.8456 34.4943 24.543 34.8319C26.2403 35.1695 27.9996 34.9962 29.5985 34.3339C31.1973 33.6717 32.5639 32.5502 33.5254 31.1112C34.4868 29.6723 35 27.9806 35 26.25V8.75C35 11.0706 34.0781 13.2962 32.4372 14.9372C30.7962 16.5781 28.5706 17.5 26.25 17.5Z" fill="#141414"/>
<path d="M21.3664 6.67852C21.353 7.7117 20.9647 8.70482 20.2737 9.47305C19.9508 9.90137 19.543 10.2585 19.0758 10.522C18.6086 10.7856 18.0921 10.95 17.5585 11.0048C17.5073 11.0059 17.4564 10.9967 17.4088 10.9778C17.3612 10.9589 17.3179 10.9307 17.2813 10.8948C17.2448 10.859 17.2157 10.8162 17.1959 10.769C17.1761 10.7218 17.1658 10.6711 17.1659 10.6199H17.1604C17.1953 9.57004 17.6064 8.56775 18.3187 7.79579C18.714 7.35229 19.1939 6.99216 19.7302 6.73649C20.1159 6.54233 20.5269 6.40335 20.9513 6.3236C21.0024 6.31589 21.0546 6.3193 21.1043 6.33359C21.1539 6.34788 21.1999 6.37272 21.2391 6.40641C21.2783 6.4401 21.3098 6.48185 21.3314 6.52881C21.353 6.57577 21.3642 6.62684 21.3642 6.67852H21.3664ZM25.2197 21.8423C24.9283 22.5207 24.5684 23.1675 24.1456 23.7727C23.7478 24.3794 23.284 24.9401 22.7626 25.4445C22.2886 25.9182 21.6546 26.1975 20.9852 26.2277C20.418 26.2027 19.8608 26.0696 19.3435 25.8356C18.785 25.5921 18.1846 25.4593 17.5755 25.4445C16.95 25.4569 16.3329 25.5897 15.7577 25.8356C15.2608 26.0597 14.7299 26.1992 14.187 26.2484C13.8454 26.2443 13.5082 26.1709 13.1958 26.0328C12.8833 25.8946 12.6021 25.6945 12.3692 25.4445C11.825 24.9224 11.3399 24.3419 10.9227 23.7137C10.2706 22.7789 9.75532 21.7558 9.39258 20.6752C8.97891 19.5119 8.76176 18.2879 8.75 17.0533C8.71709 15.8422 9.0175 14.6453 9.61844 13.5932C10.0565 12.8338 10.6829 12.2002 11.4373 11.7535C12.1812 11.3084 13.0299 11.0689 13.8966 11.0595C14.5512 11.0983 15.1943 11.2481 15.7987 11.5025C16.2803 11.7146 16.7872 11.8637 17.307 11.946C17.8804 11.8266 18.4409 11.6515 18.9804 11.4232C19.7014 11.1303 20.476 10.9928 21.2537 11.0196C22.2951 11.0698 23.2977 11.4299 24.133 12.0538C24.2494 12.1507 24.3435 12.2714 24.4091 12.4078C24.4747 12.5443 24.5102 12.6932 24.5133 12.8446C24.5163 12.9959 24.4869 13.1462 24.4268 13.2851C24.3668 13.4241 24.2776 13.5486 24.1653 13.6501C23.7188 14.0482 23.3654 14.5398 23.1303 15.0899C22.8951 15.6399 22.784 16.235 22.8047 16.8329C22.7972 17.4302 22.9167 18.0222 23.1553 18.5698C23.3939 19.1174 23.7462 19.608 24.1888 20.0091C24.3828 20.194 24.5923 20.3618 24.815 20.5106C25.0252 20.6506 25.1801 20.8595 25.253 21.1014C25.3258 21.3432 25.3121 21.6029 25.2142 21.8357C25.2208 21.8395 25.2197 21.8412 25.2197 21.8423Z" fill="white"/>
</svg>
