<svg width="35" height="35" viewBox="0 0 35 35" fill="none" xmlns="http://www.w3.org/2000/svg">
<path fill-rule="evenodd" clip-rule="evenodd" d="M26.25 35H8.75C6.42936 35 4.20376 34.0781 2.56282 32.4372C0.921873 30.7962 0 28.5706 0 26.25V8.75C0 6.42936 0.921873 4.20376 2.56282 2.56282C4.20376 0.921873 6.42936 0 8.75 0L26.25 0C28.5706 0 30.7962 0.921873 32.4372 2.56282C34.0781 4.20376 35 6.42936 35 8.75V26.25C35 28.5706 34.0781 30.7962 32.4372 32.4372C30.7962 34.0781 28.5706 35 26.25 35Z" fill="#2D2D2D"/>
<path fill-rule="evenodd" clip-rule="evenodd" d="M16.4062 9.84375H26.25C27.5128 9.84533 28.7279 9.36147 29.644 8.49224C30.5601 7.62301 31.107 6.43493 31.1716 5.17376C31.2362 3.91259 30.8136 2.67482 29.9912 1.71651C29.1688 0.7582 28.0095 0.152661 26.7531 0.0251563C26.5858 0.0158594 26.4201 0 26.25 0H8.75C6.42936 0 4.20376 0.921873 2.56282 2.56282C0.921873 4.20376 0 6.42936 0 8.75L0 26.25C0 21.8988 1.72851 17.7258 4.80528 14.649C7.88205 11.5723 12.055 9.84375 16.4062 9.84375Z" fill="#464646"/>
<path fill-rule="evenodd" clip-rule="evenodd" d="M26.25 17.5C24.5194 17.5 22.8277 18.0132 21.3888 18.9746C19.9498 19.9361 18.8283 21.3027 18.1661 22.9015C17.5038 24.5004 17.3305 26.2597 17.6681 27.957C18.0058 29.6544 18.8391 31.2135 20.0628 32.4372C21.2865 33.6609 22.8456 34.4943 24.543 34.8319C26.2403 35.1695 27.9996 34.9962 29.5985 34.3339C31.1973 33.6717 32.5639 32.5502 33.5254 31.1112C34.4868 29.6723 35 27.9806 35 26.25V8.75C35 11.0706 34.0781 13.2962 32.4372 14.9372C30.7962 16.5781 28.5706 17.5 26.25 17.5Z" fill="#141414"/>
<path d="M28.4373 17.772C28.4373 17.346 28.4176 16.9183 28.3777 16.4934C28.3516 16.2232 28.2258 15.9724 28.0248 15.79C27.8237 15.6076 27.562 15.5067 27.2905 15.5068C25.3354 15.5046 20.8822 15.5046 18.814 15.5046C18.5239 15.5046 18.2457 15.6199 18.0406 15.825C17.8354 16.0301 17.7202 16.3083 17.7202 16.5984V18.7077C17.7202 18.9978 17.8354 19.276 18.0406 19.4811C18.2457 19.6862 18.5239 19.8014 18.814 19.8014H23.7468C23.6234 20.4879 23.3621 21.1423 22.9788 21.7251C22.5955 22.3078 22.0981 22.8069 21.5166 23.1921V23.1932C21.5166 23.9323 21.8102 24.6411 22.3329 25.1638C22.8555 25.6864 23.5644 25.98 24.3035 25.98H25.1123C27.2238 24.037 28.4373 21.167 28.4373 17.772Z" fill="#1E78FF"/>
<path d="M17.7202 28.6737C20.4386 28.7502 23.0837 27.7867 25.1161 25.9798L21.521 23.1918C20.6551 23.7461 19.6744 24.0957 18.6532 24.2143C17.632 24.3329 16.5973 24.2172 15.6275 23.8762C14.6576 23.5351 13.7783 22.9776 13.0561 22.246C12.3339 21.5143 11.7879 20.6277 11.4596 19.6536H10.6223C9.86031 19.6537 9.12956 19.9565 8.59075 20.4953C8.05193 21.0341 7.74917 21.7648 7.74902 22.5268V22.5279C8.67842 24.3756 10.1029 25.9287 11.8636 27.0139C13.6243 28.0991 15.6519 28.6738 17.7202 28.6737Z" fill="#00B450"/>
<path d="M11.4558 19.6536C10.9882 18.2681 10.9882 16.7674 11.4558 15.3819V15.3808C11.4556 14.6189 11.1529 13.8881 10.614 13.3493C10.0752 12.8105 9.34449 12.5077 8.58249 12.5076H7.74905C6.96881 14.0625 6.5625 15.7781 6.5625 17.5178C6.5625 19.2574 6.96881 20.9731 7.74905 22.528L11.4558 19.6536Z" fill="#FFB400"/>
<path d="M17.7202 10.7735C18.9909 10.7535 20.2359 11.1326 21.2798 11.8574C21.487 12.0083 21.7412 12.0801 21.9967 12.0601C22.2522 12.04 22.4921 11.9294 22.6732 11.7481C23.1736 11.2734 23.8315 10.6155 24.35 10.097C24.4599 9.98714 24.5452 9.85506 24.6001 9.70961C24.655 9.56416 24.6782 9.40868 24.6683 9.25353C24.6584 9.09838 24.6155 8.94713 24.5425 8.80987C24.4695 8.67261 24.368 8.55249 24.245 8.45751C22.3549 7.06942 20.0651 6.33265 17.7202 6.35806C15.6514 6.35779 13.6233 6.93276 11.8625 8.01874C10.1016 9.10471 8.67744 10.6589 7.74902 12.5077L11.4557 15.382C11.8872 14.0555 12.7236 12.8975 13.8472 12.0709C14.9709 11.2442 16.3253 10.7905 17.7202 10.7735Z" fill="#E60014"/>
</svg>
