<svg width="35" height="35" viewBox="0 0 35 35" fill="none" xmlns="http://www.w3.org/2000/svg">
<path fill-rule="evenodd" clip-rule="evenodd" d="M26.25 35H8.75C6.42936 35 4.20376 34.0781 2.56282 32.4372C0.921873 30.7962 0 28.5706 0 26.25V8.75C0 6.42936 0.921873 4.20376 2.56282 2.56282C4.20376 0.921873 6.42936 0 8.75 0L26.25 0C28.5706 0 30.7962 0.921873 32.4372 2.56282C34.0781 4.20376 35 6.42936 35 8.75V26.25C35 28.5706 34.0781 30.7962 32.4372 32.4372C30.7962 34.0781 28.5706 35 26.25 35Z" fill="#2D2D2D"/>
<path fill-rule="evenodd" clip-rule="evenodd" d="M16.4062 9.84375H26.25C27.5128 9.84533 28.7279 9.36147 29.644 8.49224C30.5601 7.62301 31.107 6.43493 31.1716 5.17376C31.2362 3.91259 30.8136 2.67482 29.9912 1.71651C29.1688 0.7582 28.0095 0.152661 26.7531 0.0251563C26.5858 0.0158594 26.4201 0 26.25 0H8.75C6.42936 0 4.20376 0.921873 2.56282 2.56282C0.921873 4.20376 0 6.42936 0 8.75L0 26.25C0 21.8988 1.72851 17.7258 4.80528 14.649C7.88205 11.5723 12.055 9.84375 16.4062 9.84375Z" fill="#464646"/>
<path fill-rule="evenodd" clip-rule="evenodd" d="M26.25 17.5C24.5194 17.5 22.8277 18.0132 21.3888 18.9746C19.9498 19.9361 18.8283 21.3027 18.1661 22.9015C17.5038 24.5004 17.3305 26.2597 17.6681 27.957C18.0058 29.6544 18.8391 31.2135 20.0628 32.4372C21.2865 33.6609 22.8456 34.4943 24.543 34.8319C26.2403 35.1695 27.9996 34.9962 29.5985 34.3339C31.1973 33.6717 32.5639 32.5502 33.5254 31.1112C34.4868 29.6723 35 27.9806 35 26.25V8.75C35 11.0706 34.0781 13.2962 32.4372 14.9372C30.7962 16.5781 28.5706 17.5 26.25 17.5Z" fill="#141414"/>
<path d="M25.1699 8.62012V26.3799C25.1699 27.9316 23.9121 29.1895 22.3604 29.1895H12.6533C11.1016 29.1895 9.84375 27.9316 9.84375 26.3799V8.62012C9.84375 7.06836 11.1016 5.81055 12.6533 5.81055H22.3604C23.9121 5.81055 25.1699 7.06836 25.1699 8.62012Z" fill="black"/>
<path d="M12.6533 6.01562H22.3604C23.7959 6.01562 24.9648 7.18457 24.9648 8.62012V26.3799C24.9648 27.8154 23.7959 28.9844 22.3604 28.9844H12.6533C11.2178 28.9844 10.0488 27.8154 10.0488 26.3799V8.62012C10.0488 7.17773 11.2109 6.01562 12.6533 6.01562Z" fill="url(#paint0_linear_99_52)"/>
<path d="M23.8232 8.62012V23.5566C23.8232 24.3633 23.167 25.0195 22.3604 25.0195H12.6533C11.8467 25.0195 11.1904 24.3633 11.1904 23.5566V8.62012C11.1904 7.81348 11.8467 7.15723 12.6533 7.15723H22.3604C23.167 7.15723 23.8232 7.81348 23.8232 8.62012Z" fill="black"/>
<path d="M23.6182 8.62012V23.5566C23.6182 24.2539 23.0576 24.8145 22.3604 24.8145H12.6533C11.9561 24.8145 11.3955 24.2539 11.3955 23.5566V8.62012C11.3955 7.92285 11.9561 7.3623 12.6533 7.3623H22.3604C23.0576 7.3623 23.6182 7.92285 23.6182 8.62012Z" fill="url(#paint1_linear_99_52)"/>
<path d="M16.4678 27.8428C15.9414 27.8428 15.5176 27.4189 15.5176 26.8926C15.5176 26.3662 15.9414 25.9424 16.4678 25.9424H18.5527C19.0791 25.9424 19.5029 26.3662 19.5029 26.8926C19.5029 27.4189 19.0791 27.8428 18.5527 27.8428H16.4678Z" fill="black"/>
<path d="M16.4678 26.1475H18.5527C18.9629 26.1475 19.2979 26.4824 19.2979 26.8926C19.2979 27.3027 18.9629 27.6377 18.5527 27.6377H16.4678C16.0576 27.6377 15.7227 27.3027 15.7227 26.8926C15.7227 26.4824 16.0508 26.1475 16.4678 26.1475Z" fill="url(#paint2_linear_99_52)"/>
<defs>
<linearGradient id="paint0_linear_99_52" x1="17.5068" y1="6.01494" x2="17.5068" y2="28.9851" gradientUnits="userSpaceOnUse">
<stop stop-color="#635F5E"/>
<stop offset="1" stop-color="#4B4A48"/>
</linearGradient>
<linearGradient id="paint1_linear_99_52" x1="17.5068" y1="7.36094" x2="17.5068" y2="24.8124" gradientUnits="userSpaceOnUse">
<stop stop-color="white"/>
<stop offset="1" stop-color="#F2F2F2"/>
</linearGradient>
<linearGradient id="paint2_linear_99_52" x1="17.5068" y1="26.1481" x2="17.5068" y2="27.637" gradientUnits="userSpaceOnUse">
<stop stop-color="#8E8A89"/>
<stop offset="1" stop-color="#797574"/>
</linearGradient>
</defs>
</svg>
