<svg xmlns="http://www.w3.org/2000/svg" width="44.154" height="33.883" viewBox="0 0 44.154 33.883">
  <g id="Delivered" transform="translate(-819 -861.839)">
    <path id="Path_39" data-name="Path 39" d="M819,954.578a50.6,50.6,0,0,0,2.089-4.981,13.78,13.78,0,0,0,.4-3.794c.065-4.137.061-8.275.084-12.412a1.642,1.642,0,0,1,1.783-1.847c.287-.009.574-.03.861-.042,1.062-.045,2.124-.1,3.187-.128a1.653,1.653,0,0,1,1.777,1.509q.352,2.255.706,4.509c.125.79.3.944,1.1.954.963.012,1.925.011,2.888.037a2.742,2.742,0,0,1,.841.145,1.215,1.215,0,0,1,.87,1.285,1.229,1.229,0,0,1-1.147,1.05c-1.275.085-2.553.125-3.831.172-.457.017-.914,0-1.5,0a9.334,9.334,0,0,0,.261,1.6c.726,2.04,1.558,4.043,2.228,6.1a16.2,16.2,0,0,1,.488,3.007c.126,1.011.207,2.028.294,3.044a1.458,1.458,0,0,1-1.234,1.76,1.73,1.73,0,0,1-2.06-1.323,23.25,23.25,0,0,1-.328-2.691,7.284,7.284,0,0,0-1.406-4.085c-.593-.786-1.092-1.643-1.682-2.544-.25,1.027-.5,1.963-.7,2.909a16.087,16.087,0,0,1-1.451,4.036c-.4.777-.762,1.576-1.159,2.356a1.914,1.914,0,0,1-2.381,1.02,1.7,1.7,0,0,1-.978-.956Z" transform="translate(0 -61.051)" fill="#fff"/>
    <path id="Path_40" data-name="Path 40" d="M1019.166,952.413v.515c0,3.493-.022,6.986.009,10.478.016,1.775-1.594,2.346-2.939,1.781a1.522,1.522,0,0,1-.961-1.421c-.028-.861-.018-1.724-.019-2.587q0-3.126,0-6.252v-.5l-.489-.026v.493c0,2.817-.03,5.635.013,8.451.021,1.389-.918,2.321-2.607,1.973a1.676,1.676,0,0,1-1.3-1.536c-.016-.2-.017-.4-.017-.6q0-8.753,0-17.507V945.1c-.742.249-1.428.449-2.089.71a4.208,4.208,0,0,1-3.266-.033c-.916-.373-1.857-.687-2.782-1.04a2.026,2.026,0,0,1-1.322-1.974,1.115,1.115,0,0,1,1.587-1.151c.682.221,1.351.484,2.02.741,2.116.812,1.958.848,3.986-.237a7.2,7.2,0,0,1,3.791-.917c1.679.068,3.363.031,5.044.011a2.986,2.986,0,0,1,2.731,1.4c.721,1.089,1.517,2.129,2.277,3.193a2.065,2.065,0,0,1,.066,2.523c-.464.726-.95,1.439-1.4,2.176A3.164,3.164,0,0,1,1019.166,952.413Zm.024-3.411.074.036a12.264,12.264,0,0,0,.85-1.3.98.98,0,0,0-.01-.772,14.45,14.45,0,0,0-.914-1.4Z" transform="translate(-160.144 -69.674)" fill="#fff"/>
    <path id="Path_41" data-name="Path 41" d="M917.542,925.511c-.992,0-1.984,0-2.975,0a1.559,1.559,0,0,1-1.7-1.6c-.094-1.419-.2-2.838-.3-4.257a1.406,1.406,0,0,1,1.458-1.637q3.083-.028,6.166-.01a1.54,1.54,0,0,1,1.576,1.5q.163,2.192.316,4.385A1.4,1.4,0,0,1,920.6,925.5c-1.02.009-2.041,0-3.061,0Z" transform="translate(-82.147 -49.305)" fill="#fff"/>
    <path id="Path_42" data-name="Path 42" d="M840.336,865.321a3.939,3.939,0,0,1-.6,2.312,3.756,3.756,0,0,1-4.047,1.6,3.711,3.711,0,0,1-2.821-3.309,3.752,3.752,0,0,1,5.532-3.612.953.953,0,0,0,.488.091c.9-.073,1.8-.168,2.7-.25a3.207,3.207,0,0,1,.6-.017.8.8,0,0,1,.753.921,5.884,5.884,0,0,1-.6,1.5,1.576,1.576,0,0,1-1.293.669C840.821,865.255,840.6,865.289,840.336,865.321Z" transform="translate(-12.166)" fill="#fff"/>
    <path id="Path_43" data-name="Path 43" d="M1084.484,876.9a3.939,3.939,0,1,1,.085-7.878,3.939,3.939,0,1,1-.085,7.878Z" transform="translate(-229.671 -6.303)" fill="#fff"/>
  </g>
</svg>
