<svg xmlns="http://www.w3.org/2000/svg" width="24.567" height="33.506" viewBox="0 0 24.567 33.506">
  <g id="Out_For_Delivery" transform="translate(-811.083 -1398.896)">
    <path id="Path_51" data-name="Path 51" d="M835.663,1602.128h-3.908v-.384c0-1.162.007-2.324,0-3.487a1.657,1.657,0,0,0-1.681-1.685q-6.7-.011-13.394,0a1.655,1.655,0,0,0-1.668,1.7c-.008,1.277,0,2.555,0,3.866h-3.891c-.007-.1-.018-.191-.017-.281.021-1.511-.046-3.028.081-4.528a7.161,7.161,0,0,1,5.8-6.2c1.008-.176,1.008-.176,1.467.742q.762,1.526,1.524,3.053c.3.6.541.667,1.129.315.677-.406,1.358-.806,2.029-1.224a.412.412,0,0,1,.5,0c.7.434,1.411.854,2.12,1.274.464.277.738.2.982-.29.626-1.244,1.253-2.488,1.87-3.738a.36.36,0,0,1,.423-.243,7.243,7.243,0,0,1,6.631,7.292C835.667,1599.577,835.663,1600.842,835.663,1602.128Z" transform="translate(-0.014 -174.214)" fill="#fff"/>
    <path id="Path_52" data-name="Path 52" d="M879.521,1665.718v5.74H865.006v-.353q0-3.888,0-7.777c0-.627.158-.788.777-.789h2.572v2.185c0,.523-.029,1.049.013,1.568a1.287,1.287,0,0,0,.281.669,10.723,10.723,0,0,0,.856.869c.4.4.651.4,1.061-.012.181-.181.347-.376.552-.6.248.246.457.458.671.664a.576.576,0,0,0,.937.01c.208-.2.4-.426.626-.676.249.248.457.459.671.665a.581.581,0,0,0,.939.012l.025-.025c1.184-1.135,1.184-1.135,1.185-2.778q0-1.22,0-2.441a.549.549,0,0,1,.033-.108h1.123c.5,0,1,0,1.5,0s.686.19.688.7C879.523,1664.067,879.521,1664.893,879.521,1665.718Z" transform="translate(-48.897 -239.071)" fill="#fff"/>
    <path id="Path_53" data-name="Path 53" d="M889.2,1405.109a16.506,16.506,0,0,0-12.266,0,6.683,6.683,0,0,1,.4-3.169,4.9,4.9,0,0,1,4.551-3.021,20.817,20.817,0,0,1,3.063.069,4.959,4.959,0,0,1,4.246,4.691C889.212,1404.143,889.2,1404.608,889.2,1405.109Z" transform="translate(-59.695 0)" fill="#fff"/>
    <path id="Path_54" data-name="Path 54" d="M896.578,1522.62a4.744,4.744,0,0,1-5.366.019,4.97,4.97,0,0,1-2.349-4.9c.787.033,1.558.089,2.329.094q2.7.021,5.408,0c.76-.006,1.518-.062,2.3-.1A4.979,4.979,0,0,1,896.578,1522.62Z" transform="translate(-70.513 -107.768)" fill="#fff"/>
    <path id="Path_55" data-name="Path 55" d="M889.087,1467.129a5.3,5.3,0,0,1-.565.915,1.967,1.967,0,0,1-1.662.792c-1.243-.018-2.487-.005-3.731-.005-1.209,0-2.419-.025-3.626.008a2.143,2.143,0,0,1-1.961-1.039,5.556,5.556,0,0,1-.46-.856c-.2-.459-.091-.715.371-.914a13.314,13.314,0,0,1,3.345-.927,15,15,0,0,1,7.837.858C889.324,1466.23,889.416,1466.461,889.087,1467.129Z" transform="translate(-59.761 -59.873)" fill="#fff"/>
    <path id="Path_56" data-name="Path 56" d="M918.345,1666.335c-.01.236-.3.46-.491.733-.257-.252-.467-.462-.68-.667a.584.584,0,0,0-.963,0c-.205.2-.4.413-.633.651-.232-.239-.43-.448-.635-.65a.578.578,0,0,0-.96-.006c-.205.2-.4.419-.593.627a1.145,1.145,0,0,1-.619-1.108c.047-1.019.014-2.042.014-3.09h5.581C918.366,1664.015,918.392,1665.176,918.345,1666.335Z" transform="translate(-92.209 -239.335)" fill="#fff"/>
    <path id="Path_57" data-name="Path 57" d="M814.972,1722.62v3.309a2.284,2.284,0,0,1-.253.025q-1.465,0-2.93,0c-.5,0-.7-.195-.7-.691,0-.87,0-1.74,0-2.643Z" transform="translate(0 -293.553)" fill="#fff"/>
    <path id="Path_58" data-name="Path 58" d="M1036.8,1725.482a.511.511,0,0,1-.5.568c-1.124.021-2.249.009-3.39.009v-3.319h3.889C1036.8,1723.67,1036.8,1724.576,1036.8,1725.482Z" transform="translate(-201.153 -293.662)" fill="#fff"/>
    <path   id="Path_59" data-name="Path 59" d="M901.984,1592.843l-1.6.96-1.541-3.083a.889.889,0,0,1,.9.242C900.462,1591.593,901.209,1592.2,901.984,1592.843Z" transform="translate(-79.578 -173.912)" fill="#fff"/>
    <path id="Path_60" data-name="Path 60" d="M956.4,1590.14c-.55,1.1-1.053,2.115-1.58,3.171l-1.6-.958c.85-.712,1.65-1.4,2.476-2.055C955.844,1590.18,956.1,1590.2,956.4,1590.14Z" transform="translate(-128.89 -173.42)" fill="#fff"/>
    <path id="Path_61" data-name="Path 61" d="M923.256,1586.61c-.117.079-.168.108-.213.145-.687.571-1.372,1.142-2.09,1.739l-2.254-1.878a14.377,14.377,0,0,0,1.472.306,7.587,7.587,0,0,0,1.524,0A15.671,15.671,0,0,0,923.256,1586.61Z" transform="translate(-97.587 -170.219)" fill="#fff"/>
    <path id="Path_62" data-name="Path 62" d="M1008.766,1496.357c0-.512,0-.973,0-1.434a.376.376,0,0,1,.057-.192c.282-.418.569-.832.848-1.241A2.356,2.356,0,0,1,1008.766,1496.357Z" transform="translate(-179.259 -85.777)" fill="#fff"/>
    <path id="Path_63" data-name="Path 63" d="M866.075,1496.382c-.989-.692-1.414-2.161-.9-2.872.272.4.552.806.828,1.216a.372.372,0,0,1,.073.186C866.078,1495.383,866.075,1495.855,866.075,1496.382Z" transform="translate(-48.85 -85.796)" fill="#fff"/>
  </g>
</svg>
