<svg xmlns="http://www.w3.org/2000/svg" width="30.702" height="33.493" viewBox="0 0 30.702 33.493">
  <path id="Awaiting_Payment" d="M17.821,7.088a16.862,16.862,0,0,0,4.039-5.225A1.39,1.39,0,0,0,20.538,0H12.164a1.39,1.39,0,0,0-1.322,1.863,16.862,16.862,0,0,0,4.039,5.225C7.376,8.2,1,17.609,1,25.12a8.382,8.382,0,0,0,8.373,8.373H23.329A8.382,8.382,0,0,0,31.7,25.12c0-7.511-6.376-16.917-13.882-18.032ZM14.459,19.2l4.245.708a3.854,3.854,0,0,1,3.231,3.814,4.192,4.192,0,0,1-4.187,4.187v1.4a1.4,1.4,0,0,1-2.791,0v-1.4h-.374a4.2,4.2,0,0,1-3.626-2.092,1.4,1.4,0,0,1,2.416-1.4,1.4,1.4,0,0,0,1.21.7h3.165a1.4,1.4,0,0,0,1.4-1.4,1.072,1.072,0,0,0-.9-1.061L14,21.958a3.854,3.854,0,0,1-3.231-3.814,4.192,4.192,0,0,1,4.187-4.187v-1.4a1.4,1.4,0,0,1,2.791,0v1.4h.374a4.2,4.2,0,0,1,3.626,2.093,1.4,1.4,0,1,1-2.416,1.4,1.4,1.4,0,0,0-1.21-.7H14.955a1.4,1.4,0,0,0-1.4,1.4,1.072,1.072,0,0,0,.9,1.061Z" transform="translate(-1)" fill="#fff"/>
</svg>
