<svg xmlns="http://www.w3.org/2000/svg" width="37.606" height="35.212" viewBox="0 0 37.606 35.212">
  <g id="Processed" transform="translate(-1201.09 -628.787)">
    <path id="Path_49" data-name="Path 49" d="M1238.385,646.707q-1.874-2.766-3.756-5.525a.425.425,0,0,1,0-.572c1.254-1.825,2.493-3.661,3.736-5.493.611-.9.374-1.612-.654-1.953l-12.769-4.237a1.221,1.221,0,0,0-1.733.61l-3.055,4.581c-.073.109-.151.215-.252.36-.1-.133-.175-.235-.247-.342l-3.1-4.64a1.2,1.2,0,0,0-1.684-.574q-6.367,2.11-12.737,4.215a1.448,1.448,0,0,0-1.044.927v.441c.138.242.26.495.416.725q1.824,2.7,3.666,5.394a.4.4,0,0,1,0,.542q-1.845,2.69-3.665,5.395c-.156.231-.28.483-.418.726v.441a1.438,1.438,0,0,0,1.041.928q6.355,2.092,12.7,4.205c.883.293,1.236.167,1.762-.622,1.087-1.628,2.172-3.256,3.291-4.933.095.131.172.231.242.336q1.55,2.32,3.1,4.641a1.218,1.218,0,0,0,1.714.583l12.8-4.248A1.131,1.131,0,0,0,1238.385,646.707Zm-9.73-5.487q-4.221,1.41-8.445,2.814a.9.9,0,0,1-.523.028q-4.593-1.511-9.178-3.048c-.075-.025-.147-.061-.288-.12.175-.068.281-.113.39-.15q4.482-1.5,8.967-2.987a.893.893,0,0,1,.522-.028q4.594,1.511,9.179,3.046c.076.025.148.061.308.129C1229.221,641.029,1228.939,641.127,1228.656,641.22Z" fill="#fff"/>
    <path id="Path_50" data-name="Path 50" d="M1278.432,880.435a1.15,1.15,0,0,1-.887,1.236q-6.484,2.167-12.976,4.314a1.582,1.582,0,0,1-.925,0q-6.476-2.132-12.94-4.3a1.138,1.138,0,0,1-.916-1.176c-.007-2.044,0-4.089,0-6.133a1.871,1.871,0,0,1,.023-.2c.147.044.275.077.4.119q4.087,1.361,8.172,2.724a3.341,3.341,0,0,0,4.228-1.444l1.485-2.225c.087.11.156.189.214.275.45.671.9,1.344,1.345,2.015a3.332,3.332,0,0,0,4.12,1.406q4.1-1.366,8.206-2.738c.136-.045.274-.086.433-.135.009.121.02.2.02.287Q1278.435,877.441,1278.432,880.435Z" transform="translate(-44.215 -222.054)" fill="#fff"/>
  </g>
</svg>
