<svg xmlns="http://www.w3.org/2000/svg" width="41.644" height="32.73" viewBox="0 0 41.644 32.73">
  <g id="Shipped" transform="translate(-946.56 -875.16)">
    <path id="Path_44" data-name="Path 44" d="M987.542,890.419a1.848,1.848,0,0,0-.2-.4q-2.189-3.735-4.382-7.468a2.745,2.745,0,0,0-2.445-1.431c-2.237-.031-4.475-.022-6.713-.007a1.962,1.962,0,0,0-1.965,2.13q0,7.59,0,15.178v.51h-1.49v-.565q0-9.949,0-19.9a3.147,3.147,0,0,0-1.177-2.681,3.094,3.094,0,0,0-1.974-.627c-1.9.006-3.8,0-5.7,0H946.56v26.783h.418c1.166,0,2.332-.02,3.5.012a.628.628,0,0,0,.72-.492,5.913,5.913,0,0,1,3.952-3.743,6,6,0,0,1,7.461,4.2h10.738a23.318,23.318,0,0,1,1.337-2.214,5.8,5.8,0,0,1,9.624.741,3.041,3.041,0,0,0,1.1,1.219,1.9,1.9,0,0,0,2.795-1.02v-7.9C987.984,891.972,987.769,891.194,987.542,890.419ZM974.828,891.5v-7.411h.423c1.721,0,3.442,0,5.163,0a.476.476,0,0,1,.5.246q2,3.487,4.028,6.959c.031.056.056.115.1.208Z" fill="#fff"/>
    <path id="Path_45" data-name="Path 45" d="M1006.394,1083.968a4.466,4.466,0,1,0-4.316,4.554A4.4,4.4,0,0,0,1006.394,1083.968Zm-4.47,2.182a2.078,2.078,0,1,1,2.086-2.088A2.047,2.047,0,0,1,1001.923,1086.15Z" transform="translate(-44.975 -180.633)" fill="#fff"/>
    <path id="Path_46" data-name="Path 46" d="M1198.03,1083.75a4.464,4.464,0,1,0-4.129,4.764A4.4,4.4,0,0,0,1198.03,1083.75Zm-4.448,2.4a2.034,2.034,0,0,1-2.074-2.091,2.013,2.013,0,0,1,2.088-2.066,2.041,2.041,0,0,1,2.067,2.1A2.064,2.064,0,0,1,1193.582,1086.147Z" transform="translate(-214.306 -180.63)" fill="#fff"/>
    <path id="Path_47" data-name="Path 47" d="M1031,1112.341a.733.733,0,0,1-.718.722.725.725,0,0,1-.748-.73.733.733,0,1,1,1.466.008Z" transform="translate(-73.308 -208.905)" fill="#fff"/>
    <path id="Path_48" data-name="Path 48" d="M1222.587,1112.345a.717.717,0,0,1-.714.72.741.741,0,0,1-.753-.735.773.773,0,0,1,.727-.731A.738.738,0,0,1,1222.587,1112.345Z" transform="translate(-242.587 -208.905)" fill="#fff"/>
  </g>
</svg>
